<?xml version="1.0" encoding="utf-8"?>
<!-- Generator: Adobe Illustrator 23.0.4, SVG Export Plug-In . SVG Version: 6.00 Build 0)  -->
<svg version="1.1" id="dynamic-web-frame" xmlns="http://www.w3.org/2000/svg" xmlns:xlink="http://www.w3.org/1999/xlink" x="0px"
	 y="0px" viewBox="0 0 279 361.7" style="enable-background:new 0 0 279 361.7;" xml:space="preserve">
<style type="text/css">
	.frame-color{fill:#0466C2;}
	.background-color{fill:#ffffff;}
	.text-color{fill:#FFFFFF;}
	.icon-color{fill:#0466C2;opacity:1;}
	.icon-black{fill:#000000;opacity:0}

	.circle-color{fill:#0466C2;}
	.circle-color-black{fill:#FFFFFF;}
	.circle-outline{fill:#000000;opacity:0}

	.show_on_light{opacity:0;}
	.hide_on_light{opacity:1;}
</style>

<svg xmlns="http://www.w3.org/2000/svg" xmlns:xlink="http://www.w3.org/1999/xlink" version="1.1" width="259.8" height="259.8" viewBox="0 0 2000 2000" x="9.6" y="9.6" shape-rendering="crispEdges"><defs/><rect x="0" y="0" width="2000" height="2000" fill="#ffffff"/><rect x="712" y="200" width="64" height="64" fill="#000000"/><rect x="776" y="200" width="64" height="64" fill="#000000"/><rect x="1096" y="200" width="64" height="64" fill="#000000"/><rect x="1224" y="200" width="64" height="64" fill="#000000"/><rect x="1032" y="264" width="64" height="64" fill="#000000"/><rect x="1160" y="264" width="64" height="64" fill="#000000"/><rect x="712" y="328" width="64" height="64" fill="#000000"/><rect x="904" y="328" width="64" height="64" fill="#000000"/><rect x="968" y="328" width="64" height="64" fill="#000000"/><rect x="1032" y="328" width="64" height="64" fill="#000000"/><rect x="1160" y="328" width="64" height="64" fill="#000000"/><rect x="1224" y="328" width="64" height="64" fill="#000000"/><rect x="712" y="392" width="64" height="64" fill="#000000"/><rect x="776" y="392" width="64" height="64" fill="#000000"/><rect x="904" y="392" width="64" height="64" fill="#000000"/><rect x="1032" y="392" width="64" height="64" fill="#000000"/><rect x="1160" y="392" width="64" height="64" fill="#000000"/><rect x="1224" y="392" width="64" height="64" fill="#000000"/><rect x="712" y="456" width="64" height="64" fill="#000000"/><rect x="776" y="456" width="64" height="64" fill="#000000"/><rect x="840" y="456" width="64" height="64" fill="#000000"/><rect x="904" y="456" width="64" height="64" fill="#000000"/><rect x="1096" y="456" width="64" height="64" fill="#000000"/><rect x="1224" y="456" width="64" height="64" fill="#000000"/><rect x="776" y="520" width="64" height="64" fill="#000000"/><rect x="968" y="520" width="64" height="64" fill="#000000"/><rect x="1096" y="520" width="64" height="64" fill="#000000"/><rect x="1224" y="520" width="64" height="64" fill="#000000"/><rect x="712" y="584" width="64" height="64" fill="#000000"/><rect x="840" y="584" width="64" height="64" fill="#000000"/><rect x="968" y="584" width="64" height="64" fill="#000000"/><rect x="1096" y="584" width="64" height="64" fill="#000000"/><rect x="1224" y="584" width="64" height="64" fill="#000000"/><rect x="776" y="648" width="64" height="64" fill="#000000"/><rect x="904" y="648" width="64" height="64" fill="#000000"/><rect x="1096" y="648" width="64" height="64" fill="#000000"/><rect x="1160" y="648" width="64" height="64" fill="#000000"/><rect x="1224" y="648" width="64" height="64" fill="#000000"/><rect x="200" y="712" width="64" height="64" fill="#000000"/><rect x="264" y="712" width="64" height="64" fill="#000000"/><rect x="328" y="712" width="64" height="64" fill="#000000"/><rect x="392" y="712" width="64" height="64" fill="#000000"/><rect x="584" y="712" width="64" height="64" fill="#000000"/><rect x="712" y="712" width="64" height="64" fill="#000000"/><rect x="1032" y="712" width="64" height="64" fill="#000000"/><rect x="1096" y="712" width="64" height="64" fill="#000000"/><rect x="1224" y="712" width="64" height="64" fill="#000000"/><rect x="1288" y="712" width="64" height="64" fill="#000000"/><rect x="1480" y="712" width="64" height="64" fill="#000000"/><rect x="1544" y="712" width="64" height="64" fill="#000000"/><rect x="1608" y="712" width="64" height="64" fill="#000000"/><rect x="1736" y="712" width="64" height="64" fill="#000000"/><rect x="200" y="776" width="64" height="64" fill="#000000"/><rect x="328" y="776" width="64" height="64" fill="#000000"/><rect x="392" y="776" width="64" height="64" fill="#000000"/><rect x="456" y="776" width="64" height="64" fill="#000000"/><rect x="776" y="776" width="64" height="64" fill="#000000"/><rect x="1096" y="776" width="64" height="64" fill="#000000"/><rect x="1160" y="776" width="64" height="64" fill="#000000"/><rect x="1224" y="776" width="64" height="64" fill="#000000"/><rect x="1288" y="776" width="64" height="64" fill="#000000"/><rect x="1416" y="776" width="64" height="64" fill="#000000"/><rect x="1480" y="776" width="64" height="64" fill="#000000"/><rect x="1736" y="776" width="64" height="64" fill="#000000"/><rect x="264" y="840" width="64" height="64" fill="#000000"/><rect x="328" y="840" width="64" height="64" fill="#000000"/><rect x="392" y="840" width="64" height="64" fill="#000000"/><rect x="584" y="840" width="64" height="64" fill="#000000"/><rect x="648" y="840" width="64" height="64" fill="#000000"/><rect x="712" y="840" width="64" height="64" fill="#000000"/><rect x="1032" y="840" width="64" height="64" fill="#000000"/><rect x="1544" y="840" width="64" height="64" fill="#000000"/><rect x="1608" y="840" width="64" height="64" fill="#000000"/><rect x="1672" y="840" width="64" height="64" fill="#000000"/><rect x="1736" y="840" width="64" height="64" fill="#000000"/><rect x="200" y="904" width="64" height="64" fill="#000000"/><rect x="392" y="904" width="64" height="64" fill="#000000"/><rect x="456" y="904" width="64" height="64" fill="#000000"/><rect x="904" y="904" width="64" height="64" fill="#000000"/><rect x="968" y="904" width="64" height="64" fill="#000000"/><rect x="1032" y="904" width="64" height="64" fill="#000000"/><rect x="1160" y="904" width="64" height="64" fill="#000000"/><rect x="1288" y="904" width="64" height="64" fill="#000000"/><rect x="1352" y="904" width="64" height="64" fill="#000000"/><rect x="1416" y="904" width="64" height="64" fill="#000000"/><rect x="1544" y="904" width="64" height="64" fill="#000000"/><rect x="1608" y="904" width="64" height="64" fill="#000000"/><rect x="1736" y="904" width="64" height="64" fill="#000000"/><rect x="200" y="968" width="64" height="64" fill="#000000"/><rect x="264" y="968" width="64" height="64" fill="#000000"/><rect x="392" y="968" width="64" height="64" fill="#000000"/><rect x="456" y="968" width="64" height="64" fill="#000000"/><rect x="584" y="968" width="64" height="64" fill="#000000"/><rect x="712" y="968" width="64" height="64" fill="#000000"/><rect x="776" y="968" width="64" height="64" fill="#000000"/><rect x="904" y="968" width="64" height="64" fill="#000000"/><rect x="1096" y="968" width="64" height="64" fill="#000000"/><rect x="1160" y="968" width="64" height="64" fill="#000000"/><rect x="1352" y="968" width="64" height="64" fill="#000000"/><rect x="1416" y="968" width="64" height="64" fill="#000000"/><rect x="1480" y="968" width="64" height="64" fill="#000000"/><rect x="1544" y="968" width="64" height="64" fill="#000000"/><rect x="1672" y="968" width="64" height="64" fill="#000000"/><rect x="1736" y="968" width="64" height="64" fill="#000000"/><rect x="264" y="1032" width="64" height="64" fill="#000000"/><rect x="328" y="1032" width="64" height="64" fill="#000000"/><rect x="392" y="1032" width="64" height="64" fill="#000000"/><rect x="520" y="1032" width="64" height="64" fill="#000000"/><rect x="648" y="1032" width="64" height="64" fill="#000000"/><rect x="712" y="1032" width="64" height="64" fill="#000000"/><rect x="776" y="1032" width="64" height="64" fill="#000000"/><rect x="840" y="1032" width="64" height="64" fill="#000000"/><rect x="904" y="1032" width="64" height="64" fill="#000000"/><rect x="1160" y="1032" width="64" height="64" fill="#000000"/><rect x="1224" y="1032" width="64" height="64" fill="#000000"/><rect x="1416" y="1032" width="64" height="64" fill="#000000"/><rect x="1544" y="1032" width="64" height="64" fill="#000000"/><rect x="1672" y="1032" width="64" height="64" fill="#000000"/><rect x="1736" y="1032" width="64" height="64" fill="#000000"/><rect x="264" y="1096" width="64" height="64" fill="#000000"/><rect x="392" y="1096" width="64" height="64" fill="#000000"/><rect x="520" y="1096" width="64" height="64" fill="#000000"/><rect x="584" y="1096" width="64" height="64" fill="#000000"/><rect x="712" y="1096" width="64" height="64" fill="#000000"/><rect x="776" y="1096" width="64" height="64" fill="#000000"/><rect x="840" y="1096" width="64" height="64" fill="#000000"/><rect x="968" y="1096" width="64" height="64" fill="#000000"/><rect x="1160" y="1096" width="64" height="64" fill="#000000"/><rect x="1224" y="1096" width="64" height="64" fill="#000000"/><rect x="1288" y="1096" width="64" height="64" fill="#000000"/><rect x="1416" y="1096" width="64" height="64" fill="#000000"/><rect x="1480" y="1096" width="64" height="64" fill="#000000"/><rect x="1544" y="1096" width="64" height="64" fill="#000000"/><rect x="1672" y="1096" width="64" height="64" fill="#000000"/><rect x="200" y="1160" width="64" height="64" fill="#000000"/><rect x="456" y="1160" width="64" height="64" fill="#000000"/><rect x="520" y="1160" width="64" height="64" fill="#000000"/><rect x="968" y="1160" width="64" height="64" fill="#000000"/><rect x="1032" y="1160" width="64" height="64" fill="#000000"/><rect x="1096" y="1160" width="64" height="64" fill="#000000"/><rect x="1288" y="1160" width="64" height="64" fill="#000000"/><rect x="1672" y="1160" width="64" height="64" fill="#000000"/><rect x="1736" y="1160" width="64" height="64" fill="#000000"/><rect x="328" y="1224" width="64" height="64" fill="#000000"/><rect x="392" y="1224" width="64" height="64" fill="#000000"/><rect x="520" y="1224" width="64" height="64" fill="#000000"/><rect x="584" y="1224" width="64" height="64" fill="#000000"/><rect x="840" y="1224" width="64" height="64" fill="#000000"/><rect x="904" y="1224" width="64" height="64" fill="#000000"/><rect x="1096" y="1224" width="64" height="64" fill="#000000"/><rect x="1224" y="1224" width="64" height="64" fill="#000000"/><rect x="1288" y="1224" width="64" height="64" fill="#000000"/><rect x="1352" y="1224" width="64" height="64" fill="#000000"/><rect x="1416" y="1224" width="64" height="64" fill="#000000"/><rect x="1480" y="1224" width="64" height="64" fill="#000000"/><rect x="1672" y="1224" width="64" height="64" fill="#000000"/><rect x="712" y="1288" width="64" height="64" fill="#000000"/><rect x="968" y="1288" width="64" height="64" fill="#000000"/><rect x="1032" y="1288" width="64" height="64" fill="#000000"/><rect x="1160" y="1288" width="64" height="64" fill="#000000"/><rect x="1224" y="1288" width="64" height="64" fill="#000000"/><rect x="1480" y="1288" width="64" height="64" fill="#000000"/><rect x="1544" y="1288" width="64" height="64" fill="#000000"/><rect x="1608" y="1288" width="64" height="64" fill="#000000"/><rect x="776" y="1352" width="64" height="64" fill="#000000"/><rect x="840" y="1352" width="64" height="64" fill="#000000"/><rect x="904" y="1352" width="64" height="64" fill="#000000"/><rect x="968" y="1352" width="64" height="64" fill="#000000"/><rect x="1096" y="1352" width="64" height="64" fill="#000000"/><rect x="1224" y="1352" width="64" height="64" fill="#000000"/><rect x="1352" y="1352" width="64" height="64" fill="#000000"/><rect x="1480" y="1352" width="64" height="64" fill="#000000"/><rect x="1608" y="1352" width="64" height="64" fill="#000000"/><rect x="1672" y="1352" width="64" height="64" fill="#000000"/><rect x="1736" y="1352" width="64" height="64" fill="#000000"/><rect x="776" y="1416" width="64" height="64" fill="#000000"/><rect x="968" y="1416" width="64" height="64" fill="#000000"/><rect x="1032" y="1416" width="64" height="64" fill="#000000"/><rect x="1096" y="1416" width="64" height="64" fill="#000000"/><rect x="1160" y="1416" width="64" height="64" fill="#000000"/><rect x="1224" y="1416" width="64" height="64" fill="#000000"/><rect x="1480" y="1416" width="64" height="64" fill="#000000"/><rect x="1672" y="1416" width="64" height="64" fill="#000000"/><rect x="1736" y="1416" width="64" height="64" fill="#000000"/><rect x="904" y="1480" width="64" height="64" fill="#000000"/><rect x="1032" y="1480" width="64" height="64" fill="#000000"/><rect x="1160" y="1480" width="64" height="64" fill="#000000"/><rect x="1224" y="1480" width="64" height="64" fill="#000000"/><rect x="1288" y="1480" width="64" height="64" fill="#000000"/><rect x="1352" y="1480" width="64" height="64" fill="#000000"/><rect x="1416" y="1480" width="64" height="64" fill="#000000"/><rect x="1480" y="1480" width="64" height="64" fill="#000000"/><rect x="1608" y="1480" width="64" height="64" fill="#000000"/><rect x="1736" y="1480" width="64" height="64" fill="#000000"/><rect x="712" y="1544" width="64" height="64" fill="#000000"/><rect x="968" y="1544" width="64" height="64" fill="#000000"/><rect x="1096" y="1544" width="64" height="64" fill="#000000"/><rect x="1160" y="1544" width="64" height="64" fill="#000000"/><rect x="1224" y="1544" width="64" height="64" fill="#000000"/><rect x="1352" y="1544" width="64" height="64" fill="#000000"/><rect x="1480" y="1544" width="64" height="64" fill="#000000"/><rect x="1672" y="1544" width="64" height="64" fill="#000000"/><rect x="1736" y="1544" width="64" height="64" fill="#000000"/><rect x="712" y="1608" width="64" height="64" fill="#000000"/><rect x="904" y="1608" width="64" height="64" fill="#000000"/><rect x="1032" y="1608" width="64" height="64" fill="#000000"/><rect x="1096" y="1608" width="64" height="64" fill="#000000"/><rect x="1160" y="1608" width="64" height="64" fill="#000000"/><rect x="1288" y="1608" width="64" height="64" fill="#000000"/><rect x="1352" y="1608" width="64" height="64" fill="#000000"/><rect x="1544" y="1608" width="64" height="64" fill="#000000"/><rect x="1608" y="1608" width="64" height="64" fill="#000000"/><rect x="1672" y="1608" width="64" height="64" fill="#000000"/><rect x="712" y="1672" width="64" height="64" fill="#000000"/><rect x="776" y="1672" width="64" height="64" fill="#000000"/><rect x="840" y="1672" width="64" height="64" fill="#000000"/><rect x="1032" y="1672" width="64" height="64" fill="#000000"/><rect x="1096" y="1672" width="64" height="64" fill="#000000"/><rect x="1160" y="1672" width="64" height="64" fill="#000000"/><rect x="1288" y="1672" width="64" height="64" fill="#000000"/><rect x="1480" y="1672" width="64" height="64" fill="#000000"/><rect x="1608" y="1672" width="64" height="64" fill="#000000"/><rect x="1672" y="1672" width="64" height="64" fill="#000000"/><rect x="1736" y="1672" width="64" height="64" fill="#000000"/><rect x="712" y="1736" width="64" height="64" fill="#000000"/><rect x="840" y="1736" width="64" height="64" fill="#000000"/><rect x="1032" y="1736" width="64" height="64" fill="#000000"/><rect x="1160" y="1736" width="64" height="64" fill="#000000"/><rect x="1608" y="1736" width="64" height="64" fill="#000000"/><rect x="1672" y="1736" width="64" height="64" fill="#000000"/><rect x="1736" y="1736" width="64" height="64" fill="#000000"/><svg version="1.1" id="Ebene_1" x="200" y="200" viewBox="0 0 700 700" style="enable-background:new 0 0 700 700;" xml:space="preserve" width="448" height="448" shape-rendering="auto">

<path fill="#000000" d="M21.2-0.1C9.5-0.1-0.1,9.5-0.1,21.2v78.8v100v100v100v100v100v78.8c0,11.7,9.5,21.3,21.3,21.3h657.6  c11.7,0,21.3-9.5,21.3-21.3V600V500V400V300V200v-100V21.2c0-11.7-9.5-21.3-21.3-21.3H21.2z M600,200v100v100v100v87.8  c0,6.8-5.5,12.2-12.2,12.2H112.2c-6.8,0-12.2-5.5-12.2-12.2V500V400V300V200v-87.8c0-6.8,5.5-12.2,12.2-12.2h475.6  c6.8,0,12.2,5.5,12.2,12.2V200z"/>
</svg>
<svg version="1.1" id="Ebene_1" x="200" y="200" viewBox="0 0 700 700" style="enable-background:new 0 0 700 700;" xml:space="preserve" width="448" height="448" shape-rendering="auto">

<path fill="#000000" d="M500,400V300v-78.8c0-11.7-9.5-21.3-21.3-21.3H221.2c-11.7,0-21.3,9.5-21.3,21.3V300v100v78.8    c0,11.7,9.5,21.3,21.3,21.3h257.5c11.7,0,21.3-9.5,21.3-21.3V400z"/>
</svg>
<svg version="1.1" id="Ebene_1" x="1352" y="200" viewBox="0 0 700 700" style="enable-background:new 0 0 700 700;" xml:space="preserve" width="448" height="448" shape-rendering="auto">

<path fill="#000000" d="M21.2-0.1C9.5-0.1-0.1,9.5-0.1,21.2v78.8v100v100v100v100v100v78.8c0,11.7,9.5,21.3,21.3,21.3h657.6  c11.7,0,21.3-9.5,21.3-21.3V600V500V400V300V200v-100V21.2c0-11.7-9.5-21.3-21.3-21.3H21.2z M600,200v100v100v100v87.8  c0,6.8-5.5,12.2-12.2,12.2H112.2c-6.8,0-12.2-5.5-12.2-12.2V500V400V300V200v-87.8c0-6.8,5.5-12.2,12.2-12.2h475.6  c6.8,0,12.2,5.5,12.2,12.2V200z"/>
</svg>
<svg version="1.1" id="Ebene_1" x="1352" y="200" viewBox="0 0 700 700" style="enable-background:new 0 0 700 700;" xml:space="preserve" width="448" height="448" shape-rendering="auto">

<path fill="#000000" d="M500,400V300v-78.8c0-11.7-9.5-21.3-21.3-21.3H221.2c-11.7,0-21.3,9.5-21.3,21.3V300v100v78.8    c0,11.7,9.5,21.3,21.3,21.3h257.5c11.7,0,21.3-9.5,21.3-21.3V400z"/>
</svg>
<svg version="1.1" id="Ebene_1" x="200" y="1352" viewBox="0 0 700 700" style="enable-background:new 0 0 700 700;" xml:space="preserve" width="448" height="448" shape-rendering="auto">

<path fill="#000000" d="M21.2-0.1C9.5-0.1-0.1,9.5-0.1,21.2v78.8v100v100v100v100v100v78.8c0,11.7,9.5,21.3,21.3,21.3h657.6  c11.7,0,21.3-9.5,21.3-21.3V600V500V400V300V200v-100V21.2c0-11.7-9.5-21.3-21.3-21.3H21.2z M600,200v100v100v100v87.8  c0,6.8-5.5,12.2-12.2,12.2H112.2c-6.8,0-12.2-5.5-12.2-12.2V500V400V300V200v-87.8c0-6.8,5.5-12.2,12.2-12.2h475.6  c6.8,0,12.2,5.5,12.2,12.2V200z"/>
</svg>
<svg version="1.1" id="Ebene_1" x="200" y="1352" viewBox="0 0 700 700" style="enable-background:new 0 0 700 700;" xml:space="preserve" width="448" height="448" shape-rendering="auto">

<path fill="#000000" d="M500,400V300v-78.8c0-11.7-9.5-21.3-21.3-21.3H221.2c-11.7,0-21.3,9.5-21.3,21.3V300v100v78.8    c0,11.7,9.5,21.3,21.3,21.3h257.5c11.7,0,21.3-9.5,21.3-21.3V400z"/>
</svg>
</svg>

<path id="FrameBody" class="frame-color" d="M243.1,289.8H35.9c-19.8,0-35.9,16.1-35.9,36l0,0c0,19.8,16.1,35.9,35.9,35.9H243
	c19.8,0,35.9-16.1,35.9-35.9l0,0C279,305.9,262.9,289.8,243.1,289.8L243.1,289.8z M265.3,0H13.7C6.1,0,0,6.1,0,13.7v251.7
	c0,7.5,6.1,13.7,13.7,13.7h251.7c7.5,0,13.7-6.1,13.7-13.7V13.7C279,6.1,272.9,0,265.3,0z M268.5,261.1c0,4.1-3.3,7.4-7.4,7.4H17.9
	c-4.1,0-7.4-3.3-7.4-7.4V17.9c0-4.1,3.3-7.4,7.4-7.4h243.2c4.1,0,7.4,3.3,7.4,7.4V261.1z"/>
<path id="IconCircle" class="circle-color show_on_light" d="M35.9,297.2c-15.8,0-28.5,12.7-28.5,28.5s12.7,28.5,28.5,28.5s28.5-12.7,28.5-28.5
	C64.4,310,51.7,297.2,35.9,297.2z"/>
<path id="IconCircle" class="circle-color-black hide_on_light" d="M35.9,297.2c-15.8,0-28.5,12.7-28.5,28.5s12.7,28.5,28.5,28.5s28.5-12.7,28.5-28.5
	C64.4,310,51.7,297.2,35.9,297.2z"/>
<path id="IconCircleOutline" class="circle-outline show_on_light" d="M35.9,299.2c14.6,0,26.5,11.9,26.5,26.5s-11.9,26.5-26.5,26.5S9.4,340.3,9.4,325.7
	S21.3,299.2,35.9,299.2 M35.9,297.2c-15.8,0-28.5,12.7-28.5,28.5s12.7,28.5,28.5,28.5s28.5-12.7,28.5-28.5
	C64.4,310,51.7,297.2,35.9,297.2L35.9,297.2z"/>
<path id="PhoneIcon" class="icon-color hide_on_light" d="M48.2,307.5v13v2v21c0,2.3-1.9,4.1-4.1,4.1H26.4c-2.3,0-4.1-1.9-4.1-4.1v-21v-2v-13c0-2.3,1.9-4.1,4.1-4.1
	h17.7C46.3,303.4,48.2,305.3,48.2,307.5z M29.9,307.7c0,1.1,0.9,1.9,1.9,1.9h6.8c1.1,0,1.9-0.9,1.9-1.9s-0.9-1.9-1.9-1.9h-6.7
	C30.8,305.8,29.9,306.6,29.9,307.7z M45.1,312.4l-19.9-0.2v26.6h19.9V312.4z M32.5,343.2c0,1.4,1.3,2.7,2.7,2.7s2.7-1.3,2.7-2.7
	s-1.3-2.7-2.7-2.7C33.8,340.4,32.5,341.7,32.5,343.2z"/>
<path id="PhoneIconBlack" class="icon-black show_on_light" d="M48.2,307.5v13v2v21c0,2.3-1.9,4.1-4.1,4.1H26.4c-2.3,0-4.1-1.9-4.1-4.1v-21v-2v-13
	c0-2.3,1.9-4.1,4.1-4.1h17.7C46.3,303.4,48.2,305.3,48.2,307.5z M29.9,307.7c0,1.1,0.9,1.9,1.9,1.9h6.8c1.1,0,1.9-0.9,1.9-1.9
	s-0.9-1.9-1.9-1.9h-6.7C30.8,305.8,29.9,306.6,29.9,307.7z M45.1,312.4l-19.9-0.2v26.6h19.9V312.4z M32.5,343.2
	c0,1.4,1.3,2.7,2.7,2.7s2.7-1.3,2.7-2.7s-1.3-2.7-2.7-2.7C33.8,340.4,32.5,341.7,32.5,343.2z"/>
	<svg id="TextArea" x="70" y="295" width="180" height="62" viewBox="0 0 107.1962890625 17.588541666667" preserveAspectRatio="xMidYMid meet">
<svg version="1.1" xmlns="http://www.w3.org/2000/svg"><path class="text-color" fill="#FFFFFF" d=" M7.28857421875,6.09619140625q-1.267578125,0-1.99267578125,0.8486328125t-0.72509765625,2.3203125q0,1.52001953125,0.70361328125,2.344482421875t2.00341796875,0.824462890625q0.837890625,0,1.88525390625-0.3115234375l0,0.859375q-0.49951171875,0.1826171875-0.96142578125,0.249755859375t-1.0634765625,0.067138671875q-1.73486328125,0-2.672119140625-1.055419921875t-0.937255859375-2.989013671875q0-1.2138671875,0.448486328125-2.126953125t1.30517578125-1.4072265625t2.016845703125-0.494140625q1.24609375,0,2.169921875,0.4619140625l-0.3974609375,0.837890625q-0.93994140625-0.4296875-1.783203125-0.4296875z M17.72998046875,9.25439453125q0,1.88525390625-0.953369140625,2.96484375t-2.666748046875,1.07958984375q-1.73486328125,0-2.682861328125-1.060791015625t-0.947998046875-2.994384765625q0-1.91748046875,0.942626953125-2.972900390625t2.698974609375-1.055419921875q1.7080078125,0,2.65869140625,1.071533203125t0.95068359375,2.967529296875z M11.52099609375,9.25439453125q0,1.5576171875,0.66064453125,2.3740234375t1.92822265625,0.81640625q1.26220703125,0,1.91748046875-0.8056640625t0.6552734375-2.384765625q0-1.57373046875-0.64990234375-2.371337890625t-1.912109375-0.797607421875q-1.2783203125,0-1.93896484375,0.808349609375t-0.66064453125,2.360595703125z M25.68994140625,13.19140625l-1.15478515625,0l-4.20556640625-6.5205078125l-0.04296875,0l0.02685546875,0.43505859375q0.064453125,0.9775390625,0.064453125,1.697265625l0,4.38818359375l-0.9130859375,0l0-7.8525390625l1.14404296875,0l0.24169921875,0.38134765625l2.578125,3.9853515625l1.36962890625,2.13232421875l0.04296875,0q-0.0107421875-0.12890625-0.04296875-0.921142578125t-0.0322265625-1.146728515625l0-4.43115234375l0.923828125,0l0,7.8525390625z M34.04736328125,13.19140625l-1.15478515625,0l-4.20556640625-6.5205078125l-0.04296875,0l0.02685546875,0.43505859375q0.064453125,0.9775390625,0.064453125,1.697265625l0,4.38818359375l-0.9130859375,0l0-7.8525390625l1.14404296875,0l0.24169921875,0.38134765625l2.578125,3.9853515625l1.36962890625,2.13232421875l0.04296875,0q-0.0107421875-0.12890625-0.04296875-0.921142578125t-0.0322265625-1.146728515625l0-4.43115234375l0.923828125,0l0,7.8525390625z M40.56787109375,13.19140625l-4.38818359375,0l0-7.8525390625l4.38818359375,0l0,0.8701171875l-3.39990234375,0l0,2.44921875l3.201171875,0l0,0.859375l-3.201171875,0l0,2.8037109375l3.39990234375,0l0,0.8701171875z M45.65966796875,6.09619140625q-1.267578125,0-1.99267578125,0.8486328125t-0.72509765625,2.3203125q0,1.52001953125,0.70361328125,2.344482421875t2.00341796875,0.824462890625q0.837890625,0,1.88525390625-0.3115234375l0,0.859375q-0.49951171875,0.1826171875-0.96142578125,0.249755859375t-1.0634765625,0.067138671875q-1.73486328125,0-2.672119140625-1.055419921875t-0.937255859375-2.989013671875q0-1.2138671875,0.448486328125-2.126953125t1.30517578125-1.4072265625t2.016845703125-0.494140625q1.24609375,0,2.169921875,0.4619140625l-0.3974609375,0.837890625q-0.93994140625-0.4296875-1.783203125-0.4296875z M51.734375,13.19140625l-0.99365234375,0l0-6.982421875l-2.45458984375,0l0-0.8701171875l5.88671875,0l0,0.8701171875l-2.4384765625,0l0,6.982421875z  M65.1513671875,13.19140625l-0.9990234375,0l-1.53076171875-5.1455078125q-0.33837890625-1.1494140625-0.3974609375-1.55224609375q-0.0859375,0.61767578125-0.3759765625,1.58447265625l-1.482421875,5.11328125l-0.9990234375,0l-2.07861328125-7.8525390625l1.03125,0l1.21923828125,4.79638671875q0.2470703125,0.93994140625,0.3759765625,1.869140625q0.1181640625-0.880859375,0.4189453125-1.92822265625l1.3857421875-4.7373046875l1.0205078125,0l1.44482421875,4.77490234375q0.279296875,0.92919921875,0.4296875,1.890625q0.0859375-0.7412109375,0.38134765625-1.8798828125l1.2138671875-4.78564453125l1.03125,0z M70.662109375,13.19140625l-2.8359375,0l0-0.5693359375l0.923828125-0.20947265625l0-6.2841796875l-0.923828125-0.22021484375l0-0.5693359375l2.8359375,0l0,0.5693359375l-0.923828125,0.22021484375l0,6.2841796875l0.923828125,0.20947265625l0,0.5693359375z M74.6689453125,13.19140625l-0.99365234375,0l0-6.982421875l-2.45458984375,0l0-0.8701171875l5.88671875,0l0,0.8701171875l-2.4384765625,0l0,6.982421875z M84.3046875,13.19140625l-0.98828125,0l0-3.6630859375l-4.0283203125,0l0,3.6630859375l-0.98828125,0l0-7.8525390625l0.98828125,0l0,3.3193359375l4.0283203125,0l0-3.3193359375l0.98828125,0l0,7.8525390625z  M92.77490234375,13.19140625l-2.5888671875-6.8857421875l-0.04296875,0q0.08056640625,0.859375,0.08056640625,2.12158203125l0,4.76416015625l-0.9130859375,0l0-7.8525390625l1.4609375,0l2.42236328125,6.4345703125l0.04296875,0l2.46533203125-6.4345703125l1.4501953125,0l0,7.8525390625l-0.9775390625,0l0-4.82861328125q0-0.8056640625,0.0751953125-2.04638671875l-0.04296875,0l-2.62109375,6.875l-0.81103515625,0z M103.67822265625,13.19140625l-4.38818359375,0l0-7.8525390625l4.38818359375,0l0,0.8701171875l-3.39990234375,0l0,2.44921875l3.201171875,0l0,0.859375l-3.201171875,0l0,2.8037109375l3.39990234375,0l0,0.8701171875z "/></svg>
</svg>

</svg>
